<svg xmlns="http://www.w3.org/2000/svg">
	<symbol id="change" viewBox="0 0 24 24" fill="inherit">
		<path
			d="M11 4H7.2C6.0799 4 5.51984 4 5.09202 4.21799C4.71569 4.40974 4.40973 4.7157 4.21799 5.09202C4 5.51985 4 6.0799 4 7.2V16.8C4 17.9201 4 18.4802 4.21799 18.908C4.40973 19.2843 4.71569 19.5903 5.09202 19.782C5.51984 20 6.0799 20 7.2 20H16.8C17.9201 20 18.4802 20 18.908 19.782C19.2843 19.5903 19.5903 19.2843 19.782 18.908C20 18.4802 20 17.9201 20 16.8V12.5M15.5 5.5L18.3284 8.32843M10.7627 10.2373L17.411 3.58902C18.192 2.80797 19.4584 2.80797 20.2394 3.58902C21.0205 4.37007 21.0205 5.6364 20.2394 6.41745L13.3774 13.2794C12.6158 14.0411 12.235 14.4219 11.8012 14.7247C11.4162 14.9936 11.0009 15.2162 10.564 15.3882C10.0717 15.582 9.54378 15.6885 8.48793 15.9016L8 16L8.04745 15.6678C8.21536 14.4925 8.29932 13.9048 8.49029 13.3561C8.65975 12.8692 8.89125 12.4063 9.17906 11.9786C9.50341 11.4966 9.92319 11.0768 10.7627 10.2373Z"
			stroke-width="2"
			stroke-linecap="round"
			stroke-linejoin="round" />
	</symbol>
	<symbol id="remove" viewBox="0 0 512 512" fill="inherit">
		<g>
			<g>
				<path
					d="M82.952,134.729c4.174,78.441,20.438,348.879,21.201,361.577L105.097,512h301.806l0.944-15.694
			c0.765-12.698,17.029-283.136,21.201-361.577C429.048,134.729,82.952,134.729,82.952,134.729z M167.602,461.089l-14.599-279.58
			l33.346-1.741l14.599,279.58L167.602,461.089z M272.696,460.219h-33.391V180.194h33.391V460.219z M344.395,461.089l-33.346-1.741
			l14.603-279.58l33.346,1.741L344.395,461.089z" />
			</g>
		</g>
		<g>
			<g>
				<path
					d="M316.325,44.522V0H195.68l-0.003,44.522H61.217v55.703c0,0,389.565,0,389.565,0V44.522H316.325z M282.935,44.522h-53.866
			v-11.13h53.866V44.522z" />
			</g>
		</g>
	</symbol>
	<symbol id="attention" viewBox="0 0 15 15" fill="inherit">
		<path d="M7.49991 0.876892C3.84222 0.876892 0.877075 3.84204 0.877075 7.49972C0.877075 11.1574 3.84222 14.1226 7.49991 14.1226C11.1576 14.1226 14.1227 11.1574 14.1227 7.49972C14.1227 3.84204 11.1576 0.876892 7.49991 0.876892ZM1.82707 7.49972C1.82707 4.36671 4.36689 1.82689 7.49991 1.82689C10.6329 1.82689 13.1727 4.36671 13.1727 7.49972C13.1727 10.6327 10.6329 13.1726 7.49991 13.1726C4.36689 13.1726 1.82707 10.6327 1.82707 7.49972ZM8.24992 4.49999C8.24992 4.9142 7.91413 5.24999 7.49992 5.24999C7.08571 5.24999 6.74992 4.9142 6.74992 4.49999C6.74992 4.08577 7.08571 3.74999 7.49992 3.74999C7.91413 3.74999 8.24992 4.08577 8.24992 4.49999ZM6.00003 5.99999H6.50003H7.50003C7.77618 5.99999 8.00003 6.22384 8.00003 6.49999V9.99999H8.50003H9.00003V11H8.50003H7.50003H6.50003H6.00003V9.99999H6.50003H7.00003V6.99999H6.50003H6.00003V5.99999Z" fill="currentColor" fill-rule="evenodd" clip-rule="evenodd"></path>
	</symbol>
</svg>
